<svg width="171" height="36" viewBox="0 0 171 36" fill="none" xmlns="http://www.w3.org/2000/svg">
<path fill-rule="evenodd" clip-rule="evenodd" d="M27.8333 18C27.8333 25.0877 22.0877 30.8333 15 30.8333C7.91234 30.8333 2.16666 25.0877 2.16666 18C2.16666 10.9123 7.91234 5.16666 15 5.16666C22.0877 5.16666 27.8333 10.9123 27.8333 18ZM30 18C30 26.2843 23.2843 33 15 33C6.71573 33 0 26.2843 0 18C0 9.71573 6.71573 3 15 3C23.2843 3 30 9.71573 30 18ZM23.2759 11.2759C23.2759 12.1329 22.5812 12.8276 21.7242 12.8276C20.8672 12.8276 20.1725 12.1329 20.1725 11.2759C20.1725 10.4189 20.8672 9.72418 21.7242 9.72418C22.5812 9.72418 23.2759 10.4189 23.2759 11.2759ZM10.4879 19.209C11.1556 21.7009 13.717 23.1797 16.2089 22.512C18.7008 21.8443 20.1796 19.2829 19.5119 16.791C18.8442 14.2991 16.2828 12.8203 13.7909 13.488C11.299 14.1557 9.82015 16.7171 10.4879 19.209ZM8.39503 19.7698C9.37244 23.4175 13.1219 25.5823 16.7696 24.6049C20.4174 23.6274 22.5821 19.878 21.6047 16.2302C20.6273 12.5825 16.8779 10.4177 13.2301 11.3952C9.58236 12.3726 7.41762 16.122 8.39503 19.7698Z" fill="url(#paint0_linear_203_64)"/>
<g clip-path="url(#clip0_203_64)">
<path fill-rule="evenodd" clip-rule="evenodd" d="M99.6077 24.0869H99.7793C99.9852 22.4424 100.168 20.872 100.328 19.3758C100.489 17.8796 100.637 16.4103 100.775 14.9681C100.912 13.5258 101.049 12.0969 101.186 10.6816C101.324 9.26627 101.461 7.83071 101.598 6.37494C102.445 5.8088 103.349 5.52574 104.309 5.52574C104.682 5.52302 105.053 5.56996 105.416 5.66565C105.799 5.76704 106.167 5.93811 106.506 6.17275C106.736 6.33177 106.934 6.54886 107.085 6.80849C107.237 7.06812 107.337 7.36388 107.38 7.67462C107.416 7.89935 107.434 8.12768 107.432 8.35641C107.432 8.81039 107.402 9.41063 107.342 10.1571C107.322 10.3995 107.301 10.6418 107.278 10.8838C107.223 11.4601 107.164 12.0357 107.099 12.6105C107.03 13.2225 106.952 13.8668 106.866 14.5435C106.695 15.8914 106.494 17.3067 106.266 18.7895C106.037 20.2722 105.797 21.6875 105.545 23.0355C105.293 24.3834 105.036 25.6033 104.773 26.6951C104.556 27.595 104.351 28.3256 104.157 28.8869C104.118 28.9997 104.078 29.1116 104.035 29.2225C103.71 29.5792 103.192 29.8757 102.479 30.1122C102.437 30.126 102.395 30.1395 102.353 30.1526C101.575 30.3952 100.775 30.5165 99.9509 30.5165C99.5552 30.5181 99.1597 30.4923 98.7665 30.4393C98.3705 30.3843 98.0034 30.2996 97.6652 30.1853C97.5156 30.1349 97.3679 30.0767 97.2225 30.0111C97.0288 29.9251 96.842 29.8187 96.6645 29.6932C96.2479 29.3937 95.982 29.0211 95.8669 28.5755C95.5695 27.4971 95.2492 26.2166 94.906 24.7339C94.5628 23.2511 94.1967 21.6201 93.8078 19.8409C93.4875 21.5932 93.1557 23.3051 92.8125 24.9765C92.6912 25.568 92.5673 26.1589 92.4408 26.7489C92.3418 27.2113 92.2459 27.6485 92.1532 28.0607C92.0664 28.4487 91.9772 28.836 91.8859 29.2225C91.7458 29.374 91.5921 29.5069 91.4274 29.6188C91.2661 29.7304 91.0848 29.8342 90.8834 29.9302C90.7058 30.0141 90.525 30.0884 90.3415 30.1526C89.6551 30.3952 88.9001 30.5165 88.0765 30.5165C87.0469 30.5165 86.1145 30.348 85.2794 30.0111C85.0554 29.9225 84.8377 29.8129 84.6284 29.6835C84.4099 29.5463 84.2229 29.3938 84.0673 29.2262C83.8935 29.0432 83.7515 28.8222 83.6493 28.5755C83.4772 28.1703 83.2933 27.6005 83.0974 26.8662C83.0572 26.7152 83.0181 26.5638 82.9801 26.4121C82.8609 25.9356 82.747 25.4573 82.6386 24.9773C82.5244 24.4737 82.409 23.941 82.2923 23.3792C82.2755 23.2983 82.2588 23.2175 82.2422 23.1366C81.9905 21.9099 81.7331 20.5822 81.47 19.1534C81.2069 17.7246 80.9667 16.2958 80.7493 14.867C80.532 13.4381 80.3318 12.043 80.1487 10.6816C79.9657 9.32019 79.8284 8.07334 79.7369 6.94107C80.0572 6.59061 80.5034 6.2671 81.0753 5.97056C81.631 5.68533 82.2295 5.53448 82.8356 5.52695C82.8666 5.52622 82.8976 5.52581 82.9286 5.52574C83.2347 5.52365 83.5403 5.55506 83.8415 5.61955C84.2075 5.7007 84.5372 5.83428 84.8306 6.02029C84.9139 6.0731 84.995 6.13073 85.0735 6.19297C85.4014 6.458 85.6616 6.82349 85.8261 7.25002C85.9289 7.50478 86.0098 7.79108 86.0688 8.10893C86.0888 8.21772 86.106 8.32723 86.1203 8.43728C86.4863 11.1871 86.7895 13.4786 87.0297 15.3118C87.27 17.145 87.4644 18.6479 87.6131 19.8206C87.7271 20.7186 87.8175 21.4624 87.8843 22.052C87.9032 22.218 87.9215 22.3841 87.9392 22.5502C87.9978 23.1026 88.0563 23.5566 88.1149 23.9122C88.1245 23.9705 88.1345 24.0287 88.1451 24.0869H88.3167C88.5226 23.0085 88.7171 22.011 88.9001 21.0944C89.0832 20.1778 89.2719 19.2545 89.4664 18.3244C89.6609 17.3943 89.8611 16.3969 90.067 15.332C90.2438 14.417 90.4293 13.3875 90.6233 12.2433C90.6555 12.0531 90.6874 11.8627 90.719 11.6723C90.8 11.6295 90.8822 11.59 90.9654 11.5539C91.2041 11.4487 91.5166 11.3332 91.903 11.2073C92.4407 11.0321 92.9841 10.9445 93.5332 10.9445C93.872 10.9429 94.2105 10.9667 94.5467 11.0156C94.8914 11.0674 95.2094 11.1476 95.5004 11.2562C95.6484 11.3111 95.7937 11.3757 95.9356 11.4499C96.1268 11.5482 96.3074 11.673 96.4737 11.8216C96.7853 12.093 97.0075 12.4832 97.1024 12.9259C97.3541 14.0312 97.5886 15.0624 97.806 16.0194C97.9639 16.715 98.1237 17.41 98.2854 18.1044C98.337 18.3261 98.3888 18.5477 98.4409 18.7692C98.6468 19.6454 98.847 20.5148 99.0414 21.3775C99.2359 22.2402 99.4247 23.1433 99.6077 24.0869ZM57.8412 8.5586V29.3438C57.6912 29.5178 57.5223 29.6675 57.3388 29.789C57.1743 29.9001 56.9904 29.9992 56.787 30.0863C56.6764 30.1334 56.5645 30.1757 56.4513 30.2132C55.9356 30.3852 55.333 30.484 54.6434 30.5097C54.5196 30.5143 54.3958 30.5165 54.272 30.5165C53.5563 30.5206 52.8436 30.406 52.1549 30.176C52.0592 30.1436 51.9641 30.1088 51.8697 30.0717C51.1147 29.7752 50.4969 29.0608 50.0165 27.9285L46.6189 19.76C46.2757 18.9243 45.9668 18.1357 45.6922 17.3943C45.5648 17.0496 45.4403 16.7032 45.3189 16.3555C45.1946 16.0004 45.0663 15.625 44.9338 15.2293C44.8889 15.0951 44.8443 14.9609 44.7999 14.8265L44.594 14.867C44.6855 16.3227 44.737 17.8055 44.7485 19.3152C44.7599 20.8248 44.7656 22.3076 44.7656 23.7634V30.0313C44.685 30.0568 44.6037 30.0796 44.522 30.0996C44.3428 30.1441 44.1237 30.1886 43.8647 30.2331C43.7819 30.2473 43.6989 30.2609 43.6159 30.2739C43.1011 30.3548 42.5921 30.3952 42.0887 30.3952C41.8793 30.3957 41.67 30.388 41.461 30.3722C41.2059 30.3522 40.969 30.3195 40.7503 30.2739C40.5893 30.2416 40.4315 30.1905 40.2791 30.1215C40.102 30.0415 39.9368 29.9292 39.7893 29.7886C39.6198 29.6232 39.477 29.4231 39.3679 29.1978C39.3051 29.0698 39.2509 28.936 39.2059 28.7979C39.0686 28.38 39 27.8341 39 27.1602V6.94107C39.3109 6.4178 39.7833 6.02151 40.417 5.75219C40.4366 5.74394 40.4561 5.73585 40.4757 5.72793C41.1392 5.45834 41.8485 5.32354 42.6035 5.32354C43.4501 5.32354 44.2566 5.47856 45.023 5.78858C45.7895 6.09861 46.4015 6.80628 46.8591 7.91159L50.291 16.0801C50.6342 16.9158 50.9431 17.7044 51.2176 18.4457C51.3451 18.7905 51.4695 19.1368 51.591 19.4846C51.7153 19.8396 51.8436 20.215 51.9761 20.6108C52.021 20.7449 52.0656 20.8792 52.1099 21.0136L52.2815 20.9731C52.19 19.5173 52.1328 18.0616 52.1099 16.6058C52.0871 15.15 52.0756 13.6942 52.0756 12.2385V5.68749C52.1563 5.66194 52.2375 5.63915 52.3193 5.61915C52.4984 5.57467 52.7175 5.53018 52.9765 5.4857C53.0594 5.47149 53.1423 5.45787 53.2253 5.44486C53.7401 5.36398 54.2492 5.32354 54.7525 5.32354C55.0308 5.32222 55.309 5.34072 55.5854 5.37894C55.868 5.41938 56.1248 5.4822 56.3559 5.56739C56.6024 5.65466 56.8369 5.78366 57.0519 5.95034C57.276 6.13476 57.4528 6.38824 57.5629 6.68308C57.7235 7.08638 57.8146 7.60871 57.8361 8.25006C57.8395 8.35285 57.8413 8.45572 57.8412 8.5586ZM148.478 8.5586V29.3438C148.328 29.5178 148.159 29.6675 147.976 29.789C147.811 29.9001 147.627 29.9992 147.424 30.0863C147.313 30.1334 147.201 30.1757 147.088 30.2132C146.573 30.3852 145.97 30.484 145.28 30.5097C145.157 30.5143 145.033 30.5165 144.909 30.5165C144.193 30.5206 143.481 30.406 142.792 30.176C142.696 30.1436 142.601 30.1088 142.507 30.0717C141.752 29.7752 141.134 29.0608 140.653 27.9285L137.256 19.76C136.913 18.9243 136.604 18.1357 136.329 17.3943C136.202 17.0496 136.077 16.7032 135.956 16.3555C135.832 16.0004 135.703 15.625 135.571 15.2293C135.526 15.0951 135.481 14.9609 135.437 14.8265L135.231 14.867C135.323 16.3227 135.374 17.8055 135.385 19.3152C135.397 20.8248 135.403 22.3076 135.403 23.7634V30.0313C135.322 30.0568 135.241 30.0796 135.159 30.0996C134.98 30.1441 134.761 30.1886 134.502 30.2331C134.419 30.2473 134.336 30.2609 134.253 30.2739C133.738 30.3548 133.229 30.3952 132.726 30.3952C132.516 30.3957 132.307 30.388 132.098 30.3722C131.843 30.3522 131.606 30.3195 131.387 30.2739C131.226 30.2416 131.068 30.1905 130.916 30.1215C130.739 30.0415 130.574 29.9292 130.426 29.7886C130.257 29.6232 130.114 29.4231 130.005 29.1978C129.942 29.0698 129.888 28.936 129.843 28.7979C129.706 28.38 129.637 27.8341 129.637 27.1602V6.94107C129.948 6.4178 130.42 6.02151 131.054 5.75219C131.074 5.74394 131.093 5.73585 131.113 5.72793C131.776 5.45834 132.486 5.32354 133.241 5.32354C134.087 5.32354 134.894 5.47856 135.66 5.78858C136.426 6.09861 137.039 6.80628 137.496 7.91159L140.928 16.0801C141.271 16.9158 141.58 17.7044 141.855 18.4457C141.982 18.7905 142.107 19.1368 142.228 19.4846C142.352 19.8396 142.481 20.215 142.613 20.6108C142.658 20.7449 142.703 20.8792 142.747 21.0136L142.919 20.9731C142.827 19.5173 142.77 18.0616 142.747 16.6058C142.724 15.15 142.713 13.6942 142.713 12.2385V5.68749C142.793 5.66194 142.875 5.63915 142.956 5.61915C143.135 5.57467 143.355 5.53018 143.614 5.4857C143.696 5.47149 143.779 5.45787 143.862 5.44486C144.377 5.36398 144.886 5.32354 145.39 5.32354C145.668 5.32222 145.946 5.34072 146.222 5.37894C146.505 5.41938 146.762 5.4822 146.993 5.56739C147.239 5.65466 147.474 5.78366 147.689 5.95034C147.913 6.13476 148.09 6.38824 148.2 6.68308C148.361 7.08638 148.452 7.60871 148.473 8.25006C148.477 8.35285 148.478 8.45572 148.478 8.5586ZM62.3027 26.5536V9.44824C62.3027 8.28901 62.5887 7.37241 63.1607 6.69844C63.561 6.2318 64.0696 5.91521 64.6224 5.78858C64.9093 5.71916 65.2015 5.68528 65.4944 5.68749H76.8198C76.8868 5.81299 76.9469 5.94348 76.9996 6.07812C77.0547 6.2175 77.1075 6.37008 77.1578 6.53588C77.1903 6.64314 77.2206 6.75127 77.2487 6.8602C77.3682 7.32611 77.4315 7.80949 77.4368 8.29616C77.4373 8.32972 77.4375 8.36328 77.4375 8.39685C77.4375 9.3582 77.2713 10.0583 76.9388 10.4972C76.9172 10.5259 76.8946 10.5537 76.8712 10.5805C76.4937 11.0118 75.9961 11.2275 75.3784 11.2275H68.137V14.9883H75.8588C75.9283 15.1184 75.9907 15.2536 76.0455 15.3931C76.1322 15.6114 76.213 15.8607 76.2878 16.1408C76.3918 16.5357 76.4531 16.9445 76.47 17.3575C76.4745 17.4573 76.4766 17.5573 76.4766 17.6572C76.4766 18.6816 76.2935 19.4095 75.9275 19.8409C75.6608 20.1523 75.3194 20.3598 74.9494 20.4353C74.7853 20.4712 74.6186 20.4889 74.4517 20.4879H68.137V24.7339H76.957C77.0241 24.8594 77.0841 24.9899 77.1369 25.1245C77.192 25.2639 77.2447 25.4165 77.2951 25.5823C77.3275 25.6895 77.3579 25.7977 77.386 25.9066C77.5055 26.3725 77.5688 26.8559 77.5741 27.3425C77.5746 27.3761 77.5748 27.4097 77.5748 27.4432C77.576 27.7025 77.5619 27.9615 77.5326 28.2184C77.461 28.8188 77.2986 29.2799 77.0456 29.6018C77.0335 29.6172 77.0211 29.6323 77.0085 29.6471C76.7165 29.9894 76.3381 30.2106 75.9302 30.2775C75.793 30.3025 75.6544 30.3148 75.5156 30.3143H65.4944C64.5106 30.3143 63.7327 29.9774 63.1607 29.3034C62.7647 28.8317 62.496 28.2324 62.3885 27.5811C62.3296 27.2431 62.3009 26.8987 62.3027 26.5536ZM118.071 21.0136L116.63 20.4474C115.623 20.043 114.708 19.6319 113.884 19.2141C113.441 18.9911 113.012 18.7275 112.603 18.4259C112.307 18.2067 112.024 17.9633 111.757 17.6976C111.162 17.1045 110.699 16.3969 110.367 15.5746C110.197 15.1457 110.073 14.6935 109.998 14.2284C109.928 13.8152 109.887 13.371 109.874 12.896C109.871 12.7847 109.869 12.6733 109.869 12.562C109.859 11.6228 110.005 10.6904 110.3 9.81744C110.668 8.75419 111.274 7.83583 112.117 7.06239C112.853 6.40176 113.685 5.90586 114.572 5.59933C115.264 5.34969 116.023 5.1781 116.851 5.08455C117.371 5.02703 117.893 4.99883 118.415 5.00004C118.99 4.99876 119.564 5.02885 120.137 5.09022C120.479 5.12734 120.821 5.17818 121.16 5.24267C121.511 5.30862 121.859 5.39636 122.202 5.50552C122.554 5.61847 122.879 5.75125 123.177 5.90383C123.231 5.93184 123.286 5.96082 123.339 5.99077C123.609 6.13875 123.866 6.31839 124.105 6.52698C124.353 6.74291 124.575 6.99789 124.764 7.2848C125.107 7.81049 125.278 8.42381 125.278 9.12473C125.278 9.82566 125.141 10.4255 124.867 10.9242C124.592 11.423 124.26 11.8476 123.871 12.198C123.667 12.0462 123.453 11.911 123.233 11.7932C122.838 11.5795 122.376 11.3842 121.847 11.2073C121.268 11.0166 120.675 10.8912 120.076 10.8328C119.741 10.799 119.404 10.7822 119.067 10.7827C118.179 10.7827 117.495 10.9081 117.015 11.1588C116.942 11.1969 116.871 11.2401 116.802 11.2882C116.676 11.3744 116.559 11.4768 116.453 11.5935C116.205 11.8709 116.081 12.1937 116.081 12.562C116.081 12.9664 116.23 13.2966 116.527 13.5527C116.811 13.7972 117.231 14.0234 117.786 14.2313C117.813 14.2411 117.839 14.2508 117.866 14.2604L119.684 14.9478C120.379 15.2059 121.061 15.5108 121.726 15.8609C122.412 16.2257 123.027 16.6225 123.569 17.0514C123.948 17.3485 124.308 17.6795 124.644 18.0414C125.799 19.2949 126.377 21.0001 126.377 23.1568C126.377 25.4483 125.61 27.3017 124.077 28.717C122.544 30.1324 120.291 30.84 117.316 30.84C116.701 30.8417 116.087 30.8042 115.475 30.7276C115.109 30.6811 114.744 30.6174 114.382 30.5368C113.966 30.445 113.554 30.3247 113.149 30.1764C112.76 30.0342 112.381 29.8573 112.014 29.6471C111.724 29.4811 111.448 29.2838 111.188 29.0575C110.905 28.8108 110.652 28.5194 110.435 28.1913C110.058 27.6117 109.869 26.9445 109.869 26.1896C109.866 25.8232 109.915 25.4586 110.013 25.1108C110.11 24.7739 110.259 24.4611 110.453 24.188C110.648 23.9084 110.864 23.6507 111.099 23.418C111.293 23.227 111.501 23.0583 111.722 22.9142C112.082 23.2437 112.464 23.5369 112.865 23.7909C113.256 24.0394 113.659 24.2598 114.073 24.4508C114.819 24.7936 115.604 25.0014 116.402 25.0671C116.638 25.0878 116.874 25.0981 117.111 25.0978C118.232 25.0978 119.021 24.8956 119.479 24.4912C119.612 24.3755 119.734 24.2416 119.841 24.0925C120.049 23.8106 120.164 23.4497 120.165 23.0759C120.165 22.5367 119.982 22.1256 119.616 21.8425C119.477 21.7366 119.333 21.6399 119.185 21.553C119.032 21.4616 118.862 21.371 118.676 21.2813C118.477 21.1852 118.275 21.0959 118.071 21.0136ZM160.284 21.0136L158.843 20.4474C157.836 20.043 156.921 19.6319 156.097 19.2141C155.653 18.9911 155.225 18.7275 154.816 18.4259C154.519 18.2067 154.237 17.9633 153.969 17.6976C153.374 17.1045 152.911 16.3969 152.579 15.5746C152.409 15.1457 152.285 14.6935 152.21 14.2284C152.141 13.8152 152.099 13.371 152.086 12.896C152.083 12.7847 152.082 12.6733 152.082 12.562C152.072 11.6228 152.218 10.6904 152.512 9.81744C152.881 8.75419 153.487 7.83583 154.33 7.06239C155.065 6.40176 155.897 5.90586 156.785 5.59933C157.476 5.34969 158.236 5.1781 159.064 5.08455C159.583 5.02703 160.105 4.99883 160.627 5.00004C161.202 4.99876 161.777 5.02885 162.349 5.09022C162.692 5.12734 163.033 5.17818 163.373 5.24267C163.724 5.30862 164.072 5.39636 164.415 5.50552C164.767 5.61847 165.092 5.75125 165.389 5.90383C165.444 5.93184 165.498 5.96082 165.552 5.99077C165.822 6.13875 166.079 6.31839 166.318 6.52698C166.566 6.74291 166.787 6.99789 166.976 7.2848C167.319 7.81049 167.491 8.42381 167.491 9.12473C167.491 9.82566 167.354 10.4255 167.079 10.9242C166.805 11.423 166.473 11.8476 166.084 12.198C165.879 12.0462 165.666 11.911 165.445 11.7932C165.05 11.5795 164.588 11.3842 164.059 11.2073C163.481 11.0166 162.888 10.8912 162.289 10.8328C161.953 10.799 161.616 10.7822 161.279 10.7827C160.391 10.7827 159.708 10.9081 159.228 11.1588C159.155 11.1969 159.083 11.2401 159.014 11.2882C158.889 11.3744 158.772 11.4768 158.666 11.5935C158.418 11.8709 158.294 12.1937 158.294 12.562C158.294 12.9664 158.442 13.2966 158.74 13.5527C159.024 13.7972 159.444 14.0234 159.999 14.2313C160.025 14.2411 160.052 14.2508 160.078 14.2604L161.897 14.9478C162.592 15.2059 163.274 15.5108 163.939 15.8609C164.625 16.2257 165.239 16.6225 165.782 17.0514C166.161 17.3485 166.52 17.6795 166.856 18.0414C168.012 19.2949 168.589 21.0001 168.589 23.1568C168.589 25.4483 167.823 27.3017 166.29 28.717C164.757 30.1324 162.503 30.84 159.529 30.84C158.914 30.8417 158.299 30.8042 157.688 30.7276C157.321 30.6811 156.957 30.6174 156.595 30.5368C156.178 30.445 155.767 30.3247 155.362 30.1764C154.973 30.0342 154.593 29.8573 154.227 29.6471C153.937 29.4811 153.66 29.2838 153.401 29.0575C153.117 28.8108 152.864 28.5194 152.648 28.1913C152.271 27.6117 152.082 26.9445 152.082 26.1896C152.079 25.8232 152.127 25.4586 152.225 25.1108C152.323 24.7739 152.472 24.4611 152.665 24.188C152.86 23.9084 153.077 23.6507 153.312 23.418C153.505 23.227 153.714 23.0583 153.935 22.9142C154.294 23.2437 154.676 23.5369 155.077 23.7909C155.468 24.0394 155.872 24.2598 156.286 24.4508C157.031 24.7936 157.817 25.0014 158.615 25.0671C158.85 25.0878 159.087 25.0981 159.323 25.0978C160.444 25.0978 161.234 24.8956 161.691 24.4912C161.825 24.3755 161.946 24.2416 162.053 24.0925C162.262 23.8106 162.377 23.4497 162.378 23.0759C162.378 22.5367 162.194 22.1256 161.828 21.8425C161.69 21.7366 161.546 21.6399 161.398 21.553C161.245 21.4616 161.075 21.371 160.889 21.2813C160.69 21.1852 160.488 21.0959 160.284 21.0136Z" fill="white" stroke="white" stroke-width="0.944882" stroke-linecap="round"/>
</g>
<defs>
<linearGradient id="paint0_linear_203_64" x1="15" y1="3" x2="15" y2="33" gradientUnits="userSpaceOnUse">
<stop stop-color="#877EFF"/>
<stop offset="0.461458" stop-color="#685DFF"/>
<stop offset="1" stop-color="#3121FF"/>
</linearGradient>
<clipPath id="clip0_203_64">
<rect width="129.59" height="25.84" fill="white" transform="translate(39 5)"/>
</clipPath>
</defs>
</svg>
